<!DOCTYPE svg PUBLIC "-//W3C//DTD SVG 1.1//EN" "http://www.w3.org/Graphics/SVG/1.1/DTD/svg11.dtd">
<!-- Uploaded to: SVG Repo, www.svgrepo.com, Transformed by: SVG Repo Mixer Tools -->
<svg fill="#ffffff" height="800px" width="800px" version="1.1" id="Capa_1" xmlns="http://www.w3.org/2000/svg" xmlns:xlink="http://www.w3.org/1999/xlink" viewBox="0 0 484.005 484.005" xml:space="preserve" stroke="#ffffff">
<g id="SVGRepo_bgCarrier" stroke-width="0"/>
<g id="SVGRepo_tracerCarrier" stroke-linecap="round" stroke-linejoin="round"/>
<g id="SVGRepo_iconCarrier"> <g> <g> <path d="M431.252,51.005h-45c-6.627,0-12,5.373-12,12s5.373,12,12,12h45c6.627,0,12-5.373,12-12S437.879,51.005,431.252,51.005z"/> <path d="M420.047,102.622l-30-10c-6.288-2.098-13.084,1.302-15.179,7.589c-2.096,6.287,1.302,13.083,7.589,15.179l30,10 c1.259,0.42,2.539,0.619,3.797,0.619c5.023,0,9.706-3.18,11.382-8.208C429.731,111.513,426.334,104.717,420.047,102.622z"/> <path d="M386.25,34.008c1.258,0,2.538-0.199,3.797-0.619l30-10c6.287-2.096,9.685-8.892,7.589-15.179 c-2.096-6.288-8.894-9.689-15.179-7.589l-30,10c-6.287,2.096-9.685,8.892-7.589,15.179 C376.544,30.829,381.226,34.008,386.25,34.008z"/> </g> <path d="M298.271,140.43V75.505h26.981c6.627,0,12-5.373,12-12s-5.373-12-12-12h-26.981v-34.5c0-6.627-5.373-12-12-12h-59 c-6.627,0-12,5.373-12,12v34.5h-19.895c-8.416-20.603-38.35-35-76.124-35c-44.752,0-78.5,20.206-78.5,47s33.748,47,78.5,47 c37.774,0,67.708-14.396,76.124-35h19.895v64.925C145.99,158.806,94.778,222.043,94.778,297.026 c0,58.397,30.047,135.301,71.444,182.858c2.278,2.618,5.58,4.121,9.051,4.121h162.996c3.471,0,6.772-1.503,9.051-4.121 c41.397-47.558,71.444-124.461,71.444-182.858C418.764,222.044,367.552,158.806,298.271,140.43z M119.252,86.505 c-33.27,0-54.5-13.622-54.5-23s21.23-23,54.5-23s54.5,13.622,54.5,23S152.522,86.505,119.252,86.505z M281.328,419.749 c-18.57,16.577-46.141,17.602-63.743,0c-1.811-1.811-3.443-3.763-4.91-5.813c-12.131,1.676-24.555,2.13-36.005,2.13 c-3.83,0-6.934-3.105-6.934-6.934c0-3.83,3.104-6.935,6.934-6.935c10.862,0,20.637-0.482,29.378-1.454 c-5.081-15.83-1.773-33.756,11.537-44.736c31.667-26.125,63.31-2.019,98.884-37.592c5.107-5.108,11.098-1.488,10.828,6.333 C326.577,345.618,316.402,388.44,281.328,419.749z M119.297,285.026c5.273-60.924,50.305-110.646,108.946-123.021h57.055 c58.642,12.375,103.673,62.097,108.946,123.021H119.297z"/> </g> </g>
</svg>